<svg width="27" height="26" viewBox="0 0 27 26" fill="none" xmlns="http://www.w3.org/2000/svg">
<path fill-rule="evenodd" clip-rule="evenodd" d="M13.0093 24C19.0909 24 24.0186 19.0738 24.0186 13C24.0186 6.92622 19.0909 2 13.0093 2C6.92768 2 2 6.92622 2 13C2 19.0738 6.92768 24 13.0093 24ZM13.0093 26C20.1941 26 26.0186 20.1797 26.0186 13C26.0186 5.8203 20.1941 0 13.0093 0C5.82446 0 0 5.8203 0 13C0 20.1797 5.82446 26 13.0093 26ZM12.0442 15.9743C12.0071 16.1621 11.9158 16.3414 11.7703 16.4869C11.3798 16.8774 10.7466 16.8774 10.3561 16.4869L6.60234 12.7332C6.21182 12.3426 6.21182 11.7095 6.60234 11.3189C6.99287 10.9284 7.62603 10.9284 8.01656 11.3189L10.9439 14.2462L17.5768 7.61331C17.9673 7.22279 18.6005 7.22279 18.991 7.61331C19.3815 8.00384 19.3815 8.637 18.991 9.02753L12.0442 15.9743Z" fill="black"/>
</svg>
