<svg width="43" height="43" viewBox="0 0 43 43" fill="none" xmlns="http://www.w3.org/2000/svg">
<circle cx="21.5" cy="21.5" r="20.5" stroke="black" stroke-width="2"/>
<g clip-path="url(#clip0_100_3246)">
<path d="M18.125 9.21875C18.125 8.54336 17.6234 8 17 8C16.3766 8 15.875 8.54336 15.875 9.21875V11.25H14C12.3453 11.25 11 12.7074 11 14.5V15.3125V17.75V30.75C11 32.5426 12.3453 34 14 34H29C30.6547 34 32 32.5426 32 30.75V17.75V15.3125V14.5C32 12.7074 30.6547 11.25 29 11.25H27.125V9.21875C27.125 8.54336 26.6234 8 26 8C25.3766 8 24.875 8.54336 24.875 9.21875V11.25H18.125V9.21875ZM13.25 17.75H29.75V30.75C29.75 31.1969 29.4125 31.5625 29 31.5625H14C13.5875 31.5625 13.25 31.1969 13.25 30.75V17.75Z" fill="black"/>
</g>
<defs>
<clipPath id="clip0_100_3246">
<rect width="21" height="26" fill="white" transform="translate(11 8)"/>
</clipPath>
</defs>
</svg>
