<svg width="43" height="43" viewBox="0 0 43 43" fill="none" xmlns="http://www.w3.org/2000/svg">
<circle cx="21.5" cy="21.5" r="20.5" stroke="black" stroke-width="2"/>
<path d="M13.2857 13.25C12.8339 13.25 12.4643 13.5875 12.4643 14V29C12.4643 29.4125 12.8339 29.75 13.2857 29.75H24.7857V26C24.7857 25.1703 25.5199 24.5 26.4286 24.5H30.5357V14C30.5357 13.5875 30.1661 13.25 29.7143 13.25H13.2857ZM24.7857 32H13.2857C11.4734 32 10 30.6547 10 29V14C10 12.3453 11.4734 11 13.2857 11H29.7143C31.5266 11 33 12.3453 33 14V24.5V24.7578C33 25.5547 32.656 26.3187 32.04 26.8812L27.3937 31.1234C26.7777 31.6859 25.9408 32 25.0681 32H24.7857Z" fill="black"/>
</svg>
