<svg width="43" height="43" viewBox="0 0 43 43" fill="none" xmlns="http://www.w3.org/2000/svg">
<circle cx="21.5" cy="21.5" r="20.5" stroke="black" stroke-width="2"/>
<path d="M31.3701 10.2606C31.7656 10.5067 32 10.9004 32 11.3146V14.2674V25.0944C32 26.9071 29.9004 28.3753 27.3125 28.3753C24.7246 28.3753 22.625 26.9071 22.625 25.0944C22.625 23.2817 24.7246 21.8135 27.3125 21.8135C27.8594 21.8135 28.3867 21.8791 28.875 22.0021V16.0309L16.375 19.1805V27.7191C16.375 29.5318 14.2754 31 11.6875 31C9.09961 31 7 29.5318 7 27.7191C7 25.9064 9.09961 24.4382 11.6875 24.4382C12.2344 24.4382 12.7617 24.5038 13.25 24.6268V18.2045V15.2517C13.25 14.6734 13.7041 14.1608 14.3633 13.9926L29.9883 10.0555C30.4619 9.9366 30.9746 10.0104 31.3701 10.2606Z" fill="black"/>
</svg>
