<svg width="43" height="43" viewBox="0 0 43 43" fill="none" xmlns="http://www.w3.org/2000/svg">
<path d="M26.6429 14C26.6429 12.8397 26.1537 11.7269 25.283 10.9064C24.4123 10.0859 23.2314 9.625 22 9.625C20.7686 9.625 19.5877 10.0859 18.717 10.9064C17.8463 11.7269 17.3571 12.8397 17.3571 14C17.3571 15.1603 17.8463 16.2731 18.717 17.0936C19.5877 17.9141 20.7686 18.375 22 18.375C23.2314 18.375 24.4123 17.9141 25.283 17.0936C26.1537 16.2731 26.6429 15.1603 26.6429 14ZM14.5714 14C14.5714 12.1435 15.3541 10.363 16.7472 9.05025C18.1403 7.7375 20.0298 7 22 7C23.9702 7 25.8597 7.7375 27.2528 9.05025C28.6459 10.363 29.4286 12.1435 29.4286 14C29.4286 15.8565 28.6459 17.637 27.2528 18.9497C25.8597 20.2625 23.9702 21 22 21C20.0298 21 18.1403 20.2625 16.7472 18.9497C15.3541 17.637 14.5714 15.8565 14.5714 14ZM11.8612 32.375H32.1388C31.6223 28.9133 28.4652 26.25 24.6522 26.25H19.3478C15.5348 26.25 12.3777 28.9133 11.8612 32.375ZM9 33.3758C9 27.9891 13.6312 23.625 19.3478 23.625H24.6522C30.3687 23.625 35 27.9891 35 33.3758C35 34.2727 34.2281 35 33.2763 35H10.7237C9.77188 35 9 34.2727 9 33.3758Z" fill="black"/>
<circle cx="21.5" cy="21.5" r="20.5" stroke="black" stroke-width="2"/>
</svg>
