<svg width="27" height="39" viewBox="0 0 27 39" fill="none" xmlns="http://www.w3.org/2000/svg">
<g clip-path="url(#clip0_100_2272)">
<path d="M8.14821 1.34824L7.71429 2.4375H1.92857C0.86183 2.4375 0 3.52676 0 4.875C0 6.22324 0.86183 7.3125 1.92857 7.3125H25.0714C26.1382 7.3125 27 6.22324 27 4.875C27 3.52676 26.1382 2.4375 25.0714 2.4375H19.2857L18.8518 1.34824C18.5263 0.517969 17.8574 0 17.1281 0H9.87188C9.14263 0 8.47366 0.517969 8.14821 1.34824ZM25.0714 9.75H1.92857L3.20625 35.5723C3.30268 37.4994 4.5683 39 6.09308 39H20.9069C22.4317 39 23.6973 37.4994 23.7937 35.5723L25.0714 9.75Z" fill="black"/>
</g>
<defs>
<clipPath id="clip0_100_2272">
<rect width="27" height="39" fill="white"/>
</clipPath>
</defs>
</svg>
